<?xml version="1.0" standalone="no"?>
<!DOCTYPE svg PUBLIC "-//W3C//DTD SVG 20010904//EN"
 "http://www.w3.org/TR/2001/REC-SVG-20010904/DTD/svg10.dtd">
<svg version="1.0" xmlns="http://www.w3.org/2000/svg"
 width="200.000000pt" height="200.000000pt" viewBox="0 0 200.000000 200.000000"
 preserveAspectRatio="xMidYMid meet">

<g transform="translate(0.000000,200.000000) scale(0.100000,-0.100000)"
fill="#000000" stroke="none">
<path d="M520 1111 c-266 -484 -486 -884 -488 -890 -3 -8 76 -11 288 -9 l292
3 95 170 c52 94 98 178 104 187 8 15 15 14 74 -14 58 -27 74 -30 138 -26 55 2
86 10 127 31 29 15 55 25 58 23 3 -3 49 -88 102 -188 l97 -183 292 -3 c160 -1
291 1 291 4 0 15 -968 1768 -978 1771 -4 1 -225 -393 -492 -876z m593 79 c84
-26 164 -96 204 -178 24 -49 28 -69 28 -142 0 -72 -4 -93 -27 -140 -15 -30
-44 -71 -65 -90 -21 -19 -28 -24 -16 -10 43 50 68 120 67 195 -1 119 -57 211
-162 262 -48 23 -69 28 -132 27 -89 -1 -133 -18 -197 -77 -63 -58 -93 -124
-93 -208 0 -77 12 -117 53 -179 l30 -45 -32 30 c-18 16 -46 58 -63 93 -59 119
-38 263 52 365 58 66 161 115 246 116 23 1 71 -8 107 -19z"/>
</g>
</svg>
